<svg width="800" height="1500" viewBox="0 0 1616 3002" fill="none"
  xmlns="http://www.w3.org/2000/svg">
  <g opacity="0.3" transform="rotate(180) translate(-1600 -3000)">
    <path d="M2328.68 672.711L1197.3 369.559L369.175 1197.41L672.43 2328.41L1803.81 2631.56L2631.94 1803.71L2328.68 672.711Z" stroke="#dc2625" stroke-width="1" stroke-miterlimit="10" />
    <path d="M1259.82 441.101C1266.42 437.289 1777.14 570.584 1785.19 572.74C1793.24 574.897 2302.18 714.819 2303.63 720.788C2305.07 726.756 2578.19 1741.11 2576.03 1749.16C2573.88 1757.2 1834.91 2500.36 1828.3 2504.18C1821.7 2507.99 1311.11 2374.22 1305.43 2372.7C1299.75 2371.18 788.312 2231.09 786.867 2225.12C785.422 2219.16 507.568 1203.54 509.724 1195.49C511.881 1187.44 1253.22 444.913 1259.82 441.101Z" stroke="#f00" stroke-width="1" stroke-miterlimit="10"/>
    <path d="M1321.73 513.002C1335.41 505.505 1791.16 620.519 1807.25 624.831C1823.35 629.144 2276.02 757.54 2283.64 770.745C2291.27 783.95 2529.64 1679.91 2524.82 1697.89C2520 1715.88 1866.09 2370.72 1852.38 2380.24C1838.67 2389.76 1382.95 2272.72 1366.86 2268.41C1350.76 2264.1 898.568 2135.83 890.47 2122.5C882.373 2109.16 644.469 1213.33 649.289 1195.35C654.109 1177.36 1306.63 520.118 1321.73 513.002Z" stroke="#f00" stroke-width="1" stroke-miterlimit="10"/>
    <path d="M1384.12 585.016C1404.06 573.107 1806.03 669.147 1829.7 675.489C1853.37 681.831 2249.9 798.227 2261.2 818.507C2272.51 838.788 2478.74 1618.06 2472.27 1642.2C2465.8 1666.34 1897.82 2237.16 1878.01 2248.59C1858.21 2260.03 1456.96 2163.17 1432.81 2156.7C1408.67 2150.23 1012.75 2033.49 1001.31 2013.68C989.877 1993.87 784.002 1215.2 790.344 1191.53C796.686 1167.86 1364.31 596.452 1384.12 585.016Z" stroke="#f00" stroke-width="1" stroke-miterlimit="10"/>
    <path d="M1446.64 656.56C1473.05 641.312 1819.67 720.492 1851.39 728.99C1883.11 737.488 2223.36 842.357 2238.61 868.767C2253.85 895.177 2427.35 1556.09 2418.73 1588.28C2410.1 1620.47 1929.52 2105.61 1903.11 2120.86C1876.7 2136.11 1529.95 2057.4 1497.76 2048.77C1465.57 2040.15 1126.39 1935.06 1111.14 1908.65C1095.89 1882.24 921.921 1221.2 930.419 1189.49C938.917 1157.77 1418.34 671.3 1446.64 656.56Z" stroke="#f00" stroke-width="1" stroke-miterlimit="10"/>
    <path d="M1508.55 728.46C1542.17 709.054 1833.82 769.952 1873.58 780.607C1913.35 791.262 2196.85 884.477 2215.78 917.962C2234.72 951.448 2376.44 1494.25 2365.66 1534.49C2354.88 1574.73 1961.21 1974.08 1926.78 1992.76C1892.35 2011.44 1601.98 1951.39 1561.75 1940.61C1521.51 1929.83 1238.95 1836.87 1219.55 1803.26C1200.14 1769.64 1059.36 1227.09 1070.02 1187.33C1080.67 1147.56 1475.54 747.52 1508.55 728.46Z" stroke="#f00" stroke-width="1" stroke-miterlimit="10"/>
    <path d="M1571.07 800.003C1610.68 777.131 1847.84 819.875 1895.65 832.686C1943.46 845.497 2170.69 927.185 2193.57 966.8C2216.44 1006.41 2325.53 1432.41 2312.72 1480.22C2299.91 1528.03 1992.43 1842.41 1952.69 1865.75C1912.95 1889.1 1675.92 1845.88 1627.64 1832.94C1579.35 1820 1353.07 1738.57 1330.2 1698.95C1307.33 1659.34 1198.23 1233.34 1211.17 1185.06C1224.1 1136.77 1529.91 822.967 1571.07 800.003Z" stroke="#f00" stroke-width="1" stroke-miterlimit="10"/>
    <path d="M1632.99 871.891C1679.68 845.335 1861.86 869.798 1917.72 884.765C1973.58 899.732 2144.06 969.767 2170.75 1015.98C2197.43 1062.2 2274.15 1370.44 2259.18 1426.3C2244.22 1482.15 2024.13 1710.86 1977.31 1737.89C1930.5 1764.92 1748.91 1740.11 1694 1725.4C1639.08 1710.68 1468.13 1640.52 1440.97 1594.18C1413.81 1547.83 1338.04 1239.85 1353.13 1183.52C1368.23 1127.19 1586.77 898.575 1632.99 871.891Z" stroke="#f00" stroke-width="1" stroke-miterlimit="10"/>
    <path d="M1695.37 943.921C1748.32 912.952 1876.01 919.261 1939.91 936.384C2003.82 953.508 2117.56 1011.89 2148.4 1065.31C2179.24 1118.73 2223.24 1308.6 2206.12 1372.51C2188.99 1436.42 2055.35 1579.2 2002.4 1610.17C1949.46 1641.14 1820 1633.85 1757.51 1617.11C1695.03 1600.36 1579.87 1541.6 1549.38 1488.78C1518.88 1435.96 1474.66 1245.01 1491.78 1181.11C1508.91 1117.2 1641.61 974.163 1695.37 943.921Z" stroke="#f00" stroke-width="1" stroke-miterlimit="10"/>
    <path d="M2152.67 1320.13C2136.63 1380.51 2100.15 1433.48 2049.45 1469.98C1998.73 1506.48 1936.94 1524.27 1874.58 1520.31C1812.22 1516.35 1753.17 1490.9 1707.48 1448.28C1661.8 1405.65 1632.3 1348.51 1624.03 1286.58C1615.75 1224.65 1629.21 1161.76 1662.11 1108.65C1695.01 1055.53 1745.31 1015.46 1804.44 995.271C1863.57 975.081 1927.87 976.025 1986.39 997.935C2044.89 1019.85 2094 1061.37 2125.33 1115.43C2143.22 1146.04 2154.85 1179.9 2159.54 1215.04C2164.24 1250.18 2161.9 1285.9 2152.67 1320.13Z" stroke="#f00" stroke-width="1" stroke-miterlimit="10"/>
  </g>
</svg>
